<mxfile host="app.diagrams.net" modified="2023-11-16T20:13:31.853Z" agent="Mozilla/5.0 (X11; Linux x86_64; rv:109.0) Gecko/20100101 Firefox/119.0" etag="7vhkPqb6yVkcYcGcNhRO" version="22.1.2" type="device">
  <diagram name="Page-1" id="Q8ZkalMtOt8vxh_o3JDa">
    <mxGraphModel dx="978" dy="639" grid="1" gridSize="10" guides="1" tooltips="1" connect="1" arrows="1" fold="1" page="1" pageScale="1" pageWidth="850" pageHeight="1100" math="0" shadow="0">
      <root>
        <mxCell id="0" />
        <mxCell id="1" parent="0" />
        <mxCell id="tazCod9LH7imITazEJZs-2" value="" style="shape=mxgraph.signs.tech.video_camera;html=1;pointerEvents=1;fillColor=#000000;strokeColor=none;verticalLabelPosition=bottom;verticalAlign=top;align=center;rotation=-180;" parent="1" vertex="1">
          <mxGeometry x="170" y="339" width="98" height="40" as="geometry" />
        </mxCell>
        <mxCell id="tazCod9LH7imITazEJZs-3" value="" style="html=1;verticalLabelPosition=bottom;align=center;labelBackgroundColor=#ffffff;verticalAlign=top;strokeWidth=2;strokeColor=#0080F0;shadow=0;dashed=0;shape=mxgraph.ios7.icons.smartphone;" parent="1" vertex="1">
          <mxGeometry x="260" y="210" width="54" height="90" as="geometry" />
        </mxCell>
        <mxCell id="tazCod9LH7imITazEJZs-4" value="" style="sketch=0;outlineConnect=0;fontColor=#232F3E;gradientColor=none;fillColor=#7AA116;strokeColor=none;dashed=0;verticalLabelPosition=bottom;verticalAlign=top;align=center;html=1;fontSize=12;fontStyle=0;aspect=fixed;pointerEvents=1;shape=mxgraph.aws4.http_protocol;" parent="1" vertex="1">
          <mxGeometry x="390" y="230" width="50" height="50" as="geometry" />
        </mxCell>
        <mxCell id="c_80cb-lGNnEd_FIKMnX-3" value="" style="shape=image;html=1;verticalAlign=top;verticalLabelPosition=bottom;labelBackgroundColor=#ffffff;imageAspect=0;aspect=fixed;image=https://cdn1.iconfinder.com/data/icons/computer-hardware-glyphs-vol-2/52/microchip__chip__cpu__computer__proceesor__pc__hardware-128.png" vertex="1" parent="1">
          <mxGeometry x="489.5" y="215" width="80" height="80" as="geometry" />
        </mxCell>
        <mxCell id="c_80cb-lGNnEd_FIKMnX-4" value="" style="shape=image;html=1;verticalAlign=top;verticalLabelPosition=bottom;labelBackgroundColor=#ffffff;imageAspect=0;aspect=fixed;image=https://cdn1.iconfinder.com/data/icons/computer-hardware-line-vol-1/52/cpu__intel__desktop__processorchip__processor__hardware__pc-128.png" vertex="1" parent="1">
          <mxGeometry x="425" y="320" width="78" height="78" as="geometry" />
        </mxCell>
        <mxCell id="c_80cb-lGNnEd_FIKMnX-8" value="" style="endArrow=classic;startArrow=classic;html=1;rounded=0;entryX=0.963;entryY=0.556;entryDx=0;entryDy=0;entryPerimeter=0;exitX=0.5;exitY=0;exitDx=0;exitDy=0;" edge="1" parent="1" source="c_80cb-lGNnEd_FIKMnX-4" target="tazCod9LH7imITazEJZs-3">
          <mxGeometry width="50" height="50" relative="1" as="geometry">
            <mxPoint x="461" y="320" as="sourcePoint" />
            <mxPoint x="470" y="200" as="targetPoint" />
          </mxGeometry>
        </mxCell>
        <mxCell id="c_80cb-lGNnEd_FIKMnX-9" value="" style="shape=image;html=1;verticalAlign=top;verticalLabelPosition=bottom;labelBackgroundColor=#ffffff;imageAspect=0;aspect=fixed;image=https://cdn1.iconfinder.com/data/icons/material-device/24/screen-rotation-128.png" vertex="1" parent="1">
          <mxGeometry x="263" y="220" width="30" height="30" as="geometry" />
        </mxCell>
        <mxCell id="c_80cb-lGNnEd_FIKMnX-10" value="" style="sketch=0;aspect=fixed;pointerEvents=1;shadow=0;dashed=0;html=1;strokeColor=none;labelPosition=center;verticalLabelPosition=bottom;verticalAlign=top;align=center;fillColor=#00188D;shape=mxgraph.mscae.enterprise.usb" vertex="1" parent="1">
          <mxGeometry x="330" y="330" width="50" height="23" as="geometry" />
        </mxCell>
        <mxCell id="c_80cb-lGNnEd_FIKMnX-12" value="" style="endArrow=classic;html=1;rounded=0;entryX=0;entryY=0.5;entryDx=0;entryDy=0;exitX=0;exitY=0.5;exitDx=0;exitDy=0;exitPerimeter=0;" edge="1" parent="1" source="tazCod9LH7imITazEJZs-2" target="c_80cb-lGNnEd_FIKMnX-4">
          <mxGeometry width="50" height="50" relative="1" as="geometry">
            <mxPoint x="270" y="360" as="sourcePoint" />
            <mxPoint x="318" y="310" as="targetPoint" />
          </mxGeometry>
        </mxCell>
        <mxCell id="c_80cb-lGNnEd_FIKMnX-13" value="" style="html=1;verticalLabelPosition=bottom;align=center;labelBackgroundColor=#ffffff;verticalAlign=top;strokeWidth=2;strokeColor=#0080F0;shadow=0;dashed=0;shape=mxgraph.ios7.icons.monitor;" vertex="1" parent="1">
          <mxGeometry x="580" y="300" width="211" height="140" as="geometry" />
        </mxCell>
        <mxCell id="c_80cb-lGNnEd_FIKMnX-14" value="" style="endArrow=classic;startArrow=classic;html=1;rounded=0;entryX=0.25;entryY=1;entryDx=0;entryDy=0;exitX=0.75;exitY=0;exitDx=0;exitDy=0;" edge="1" parent="1" source="c_80cb-lGNnEd_FIKMnX-4" target="c_80cb-lGNnEd_FIKMnX-3">
          <mxGeometry width="50" height="50" relative="1" as="geometry">
            <mxPoint x="500" y="410" as="sourcePoint" />
            <mxPoint x="550" y="360" as="targetPoint" />
          </mxGeometry>
        </mxCell>
        <mxCell id="c_80cb-lGNnEd_FIKMnX-15" value="&lt;div&gt;AXI&lt;/div&gt;" style="text;html=1;strokeColor=none;fillColor=none;align=center;verticalAlign=middle;whiteSpace=wrap;rounded=0;" vertex="1" parent="1">
          <mxGeometry x="499.5" y="300" width="40" height="20" as="geometry" />
        </mxCell>
        <mxCell id="c_80cb-lGNnEd_FIKMnX-17" value="" style="endArrow=classic;html=1;rounded=0;exitX=1;exitY=0.5;exitDx=0;exitDy=0;entryX=-0.014;entryY=0.421;entryDx=0;entryDy=0;entryPerimeter=0;" edge="1" parent="1" source="c_80cb-lGNnEd_FIKMnX-4" target="c_80cb-lGNnEd_FIKMnX-13">
          <mxGeometry width="50" height="50" relative="1" as="geometry">
            <mxPoint x="560" y="430" as="sourcePoint" />
            <mxPoint x="610" y="380" as="targetPoint" />
          </mxGeometry>
        </mxCell>
        <mxCell id="c_80cb-lGNnEd_FIKMnX-18" value="&lt;div&gt;FPGA&lt;/div&gt;" style="text;html=1;strokeColor=none;fillColor=none;align=center;verticalAlign=middle;whiteSpace=wrap;rounded=0;" vertex="1" parent="1">
          <mxGeometry x="499.5" y="240" width="60" height="30" as="geometry" />
        </mxCell>
        <mxCell id="c_80cb-lGNnEd_FIKMnX-21" value="" style="shape=image;html=1;verticalAlign=top;verticalLabelPosition=bottom;labelBackgroundColor=#ffffff;imageAspect=0;aspect=fixed;image=https://cdn4.iconfinder.com/data/icons/48-bubbles/48/18.Pictures-Day-128.png;rotation=125;" vertex="1" parent="1">
          <mxGeometry x="30" y="286" width="128" height="128" as="geometry" />
        </mxCell>
        <mxCell id="c_80cb-lGNnEd_FIKMnX-23" value="" style="shape=image;html=1;verticalAlign=top;verticalLabelPosition=bottom;labelBackgroundColor=#ffffff;imageAspect=0;aspect=fixed;image=https://cdn4.iconfinder.com/data/icons/48-bubbles/48/18.Pictures-Day-128.png;rotation=15;" vertex="1" parent="1">
          <mxGeometry x="626.5" y="300" width="118" height="118" as="geometry" />
        </mxCell>
        <mxCell id="c_80cb-lGNnEd_FIKMnX-24" value="" style="shape=image;html=1;verticalAlign=top;verticalLabelPosition=bottom;labelBackgroundColor=#ffffff;imageAspect=0;aspect=fixed;image=https://cdn4.iconfinder.com/data/icons/scripting-and-programming-languages/512/js-128.png" vertex="1" parent="1">
          <mxGeometry x="400" y="230" width="30" height="30" as="geometry" />
        </mxCell>
      </root>
    </mxGraphModel>
  </diagram>
</mxfile>
